<svg id="Layer_1" height="512" viewBox="0 0 128 128" width="512" xmlns="http://www.w3.org/2000/svg" data-name="Layer 1"><path d="m115.5 109.67v5.71h-103v-5.71a33.792 33.792 0 0 1 33.79-33.79h35.42a33.792 33.792 0 0 1 33.79 33.79z" fill="#cc1c17"/><path d="m81.71 75.88h-17.71v39.5h51.5v-5.71a33.792 33.792 0 0 0 -33.79-33.79z" fill="#941111"/><path d="m91.356 72.159h-27.356-27.356l-10.774 10.595 10.656 4.877v16l14.224-2.75 13.25 10.5 13.25-10.5 14.224 2.75v-16l10.656-4.877z" fill="#fdb73c"/><path d="m64 97.125v14.256l13.25-10.5 14.224 2.75v-16l10.656-4.877-10.774-10.595z" fill="#e67b2a"/><rect fill="#e2f2ef" height="71.756" rx="27.474" width="54.948" x="36.526" y="25.369"/><circle cx="64" cy="61.994" fill="#cc1c17" r="6.125"/><path d="m51.75 49.2h-1.25v-1.25a1.75 1.75 0 0 0 -3.5 0v1.25h-1.25a1.75 1.75 0 0 0 0 3.5h1.25v1.25a1.75 1.75 0 0 0 3.5 0v-1.25h1.25a1.75 1.75 0 0 0 0-3.5z" fill="#112d34"/><path d="m82.25 49.2h-1.25v-1.25a1.75 1.75 0 0 0 -3.5 0v1.25h-1.25a1.75 1.75 0 0 0 0 3.5h1.25v1.25a1.75 1.75 0 0 0 3.5 0v-1.25h1.25a1.75 1.75 0 0 0 0-3.5z" fill="#112d34"/><path d="m38.28 110.21v5.17h-3.5v-5.17a1.75 1.75 0 0 1 3.5 0z" fill="#941111"/><path d="m93.22 110.21v5.17h-3.5v-5.17a1.75 1.75 0 0 1 3.5 0z" fill="#cc1c17"/><path d="m68.625 35.875a14.931 14.931 0 0 0 10.625 3v5.458a2.708 2.708 0 0 1 2.708 2.708v1h.167a2.833 2.833 0 0 1 2.833 2.833v.208a2.833 2.833 0 0 1 -2.833 2.833 2.792 2.792 0 0 1 -2.792 2.792h-.083s.25 40.418-15.25 40.418a27.474 27.474 0 0 0 27.474-27.474v-16.808a27.474 27.474 0 0 0 -27.474-27.474s-.25 6.631 4.625 10.506z" fill="#c8e2dd"/><path d="m50.294 16.369a9.772 9.772 0 0 0 -3.491.651 6.746 6.746 0 0 0 -13.071 2.349c0 .042.005.082.006.123a11.863 11.863 0 0 0 -6.808 20.115 7.647 7.647 0 1 0 13.183 2.513 11.9 11.9 0 0 0 6.414-6.879 9.813 9.813 0 1 0 3.767-18.873z" fill="#38ca46"/><path d="m77.706 16.369a9.772 9.772 0 0 1 3.491.651 6.746 6.746 0 0 1 13.071 2.349c0 .042-.005.082-.006.123a11.863 11.863 0 0 1 6.808 20.116 7.647 7.647 0 1 1 -13.183 2.513 11.9 11.9 0 0 1 -6.414-6.879 9.813 9.813 0 1 1 -3.767-18.873z" fill="#229a32"/><path d="m64 89.744a19.73 19.73 0 0 1 -19.708-19.708 3.5 3.5 0 0 1 7 0 12.708 12.708 0 1 0 25.416 0 3.5 3.5 0 1 1 7 0 19.73 19.73 0 0 1 -19.708 19.708z" fill="#6740aa"/></svg>