<?xml version="1.0" encoding="iso-8859-1"?>
<!-- Generator: Adobe Illustrator 19.0.0, SVG Export Plug-In . SVG Version: 6.00 Build 0)  -->
<svg version="1.1" id="Layer_1" xmlns="http://www.w3.org/2000/svg" xmlns:xlink="http://www.w3.org/1999/xlink" x="0px" y="0px"
	 viewBox="0 0 511.999 511.999" style="enable-background:new 0 0 511.999 511.999;" xml:space="preserve">
<path style="fill:#FFCA54;" d="M437.921,88.78c40.465,44.022,65.167,102.761,65.167,167.267
	c0,136.549-110.695,247.244-247.244,247.244S8.6,392.596,8.6,256.047S119.296,8.803,255.845,8.803
	c61.94,0,118.56,22.777,161.942,60.411"/>
<path style="fill:#FCD288;" d="M447.993,411.624c117.475-144.909,37.345-364.36-146.575-398.627
	c-45.976,41.937-74.829,102.33-74.829,169.464C226.589,306.459,325.012,407.453,447.993,411.624z"/>
<g>
	<path style="fill:#FF4B4E;" d="M360.166,400.077c-94.625,74.998-235.006,28.317-266.38-87.498
		c-3.105-11.462,3.67-23.269,15.13-26.373c11.46-3.105,23.268,3.671,26.373,15.13c14.698,54.256,64.272,92.152,120.556,92.152
		s105.857-37.895,120.557-92.152c3.104-11.461,14.911-18.238,26.373-15.13c11.461,3.104,18.236,14.91,15.129,26.373
		c-7.042,26.001-20.04,49.208-37.278,68.307"/>
	<circle style="fill:#FF4B4E;" cx="255.847" cy="275.154" r="48.464"/>
</g>
<path style="fill:#FCA21F;" d="M39.914,256.047c0-131.306,102.365-238.686,231.642-246.741C128.397,0.343,8.6,113.884,8.6,256.047
	c0,136.549,110.696,247.244,247.244,247.244c5.26,0,10.478-0.184,15.657-0.507C142.252,494.704,39.914,387.334,39.914,256.047z"/>
<path style="fill:#EF3F48;" d="M271.502,229.287c-31.509-10.755-64.124,12.749-64.124,45.865c0,33.16,32.652,56.603,64.124,45.867
	C227.872,306.126,227.876,244.175,271.502,229.287z"/>
<g>
	<path style="fill:#0098FF;" d="M403.568,159.811c-25.461-3.698-10.857-1.576-26.159-3.8c-12.474-25.274-11.895-25.339-14.33-25.339
		c-2.43,0-1.699-0.248-14.327,25.339c-27.949,4.059-27.775,3.479-28.527,5.796c-0.763,2.34-0.664,1.636,19.67,21.457
		c-4.8,27.992-5.266,27.494-3.303,28.924c2.01,1.456,1.403,1.109,26.486-12.08c24.612,12.939,24.478,13.538,26.486,12.08
		c2.008-1.459,1.49-0.993-3.302-28.924l18.93-18.451C406.924,163.127,405.98,160.165,403.568,159.811z"/>
	<path style="fill:#0098FF;" d="M189.097,159.811c-24.864-3.611-11.061-1.605-26.16-3.8c-12.571-25.468-11.899-25.339-14.328-25.339
		c-1.116,0-2.136,0.633-2.63,1.635l-11.697,23.705c-27.891,4.051-27.775,3.481-28.529,5.796c-0.764,2.348-0.663,1.637,19.672,21.457
		c-4.775,27.835-5.273,27.492-3.303,28.924c1.999,1.45,1.352,1.135,26.486-12.08c25.41,13.361,23.735,12.638,24.762,12.638
		c1.829,0,3.196-1.646,2.89-3.428l-4.468-26.055l18.93-18.451C192.457,163.125,191.505,160.165,189.097,159.811z"/>
</g>
<g>
	<path style="fill:#231F20;" d="M444.529,82.836c-3.021-3.288-8.135-3.503-11.419-0.48c-3.288,3.021-3.504,8.135-0.481,11.422
		c40.759,44.341,63.206,101.957,63.206,162.232c0,132.228-107.577,239.804-239.805,239.804
		c-132.227,0-239.803-107.576-239.803-239.804S123.803,16.205,256.03,16.205c57.732,0,113.512,20.808,157.066,58.591
		c3.375,2.928,8.48,2.563,11.402-0.809c2.926-3.372,2.564-8.478-0.809-11.403C323.844-24.034,171.509-21.468,75.031,75.01
		c-100.038,100.038-100.046,261.95,0,361.996c48.347,48.348,112.626,74.972,180.997,74.972
		c141.476,0,255.971-114.484,255.971-255.97C512,191.669,488.038,130.169,444.529,82.836z"/>
	<path style="fill:#231F20;" d="M375.135,375.757c-2.992,3.315-2.73,8.427,0.583,11.418c3.313,2.99,8.426,2.729,11.418-0.586
		c18.445-20.437,31.992-45.263,39.177-71.788c6.846-25.258-20.363-46.65-43.355-33.459c-6.866,3.939-11.787,10.318-13.858,17.959
		c-13.784,50.884-60.28,86.423-113.068,86.423c-52.787,0-99.283-35.538-113.067-86.421c-6.847-25.299-41.148-29.953-54.316-7
		c-3.939,6.866-4.969,14.857-2.898,22.498c20.766,76.659,90.788,130.2,170.282,130.2c39.562,0,78.49-13.586,109.613-38.254
		c3.501-2.774,4.086-7.857,1.315-11.354c-2.774-3.501-7.857-4.087-11.357-1.315c-90.3,71.579-224.303,27.048-254.248-83.503
		c-0.941-3.475-0.474-7.105,1.317-10.228c5.983-10.428,21.577-8.321,24.687,3.183c15.69,57.912,68.602,98.36,128.672,98.36
		c60.071,0,112.983-40.448,128.672-98.36c0.941-3.475,3.178-6.373,6.3-8.163c10.393-5.97,22.825,3.674,19.706,15.208
		C404.185,334.658,391.884,357.198,375.135,375.757z"/>
	<path style="fill:#231F20;" d="M256.03,218.489c-31.25,0-56.676,25.424-56.676,56.676c0,31.251,25.426,56.676,56.676,56.676
		c31.252,0,56.676-25.425,56.676-56.676C312.704,243.912,287.282,218.489,256.03,218.489z M256.03,315.673
		c-22.335,0-40.509-18.172-40.509-40.509s18.174-40.509,40.509-40.509c22.337,0,40.51,18.172,40.51,40.509
		C296.539,297.501,278.367,315.673,256.03,315.673z"/>
	<path style="fill:#231F20;" d="M405.3,151.524l-22.021-3.2l-9.853-19.959c-4.043-8.183-15.728-8.182-19.766,0.004l-9.85,19.955
		l-22.031,3.201c-9.048,1.325-12.626,12.44-6.101,18.802l15.936,15.532l-3.76,21.933c-1.551,9.027,7.946,15.851,15.992,11.621
		l19.696-10.355c21.307,11.2,21.293,11.621,24.828,11.621c6.747,0,12.033-6.051,10.865-12.886l-3.762-21.935l15.932-15.53
		C417.933,163.972,414.36,152.849,405.3,151.524z M381.145,177.249c-1.905,1.856-2.774,4.531-2.324,7.153l2.719,15.852
		c-15.463-8.13-15.407-8.413-17.998-8.413c-2.587,0-2.397,0.211-17.994,8.412l2.718-15.851c0.451-2.622-0.419-5.297-2.324-7.155
		l-11.515-11.224l15.914-2.313c2.633-0.383,4.909-2.036,6.086-4.422l7.117-14.419l7.117,14.419c1.179,2.387,3.454,4.039,6.086,4.422
		l15.912,2.313L381.145,177.249z"/>
	<path style="fill:#231F20;" d="M190.271,151.524l-22.021-3.2l-9.85-19.953c-4.039-8.189-15.729-8.19-19.768-0.002l-9.85,19.955
		l-22.031,3.201c-9.026,1.321-12.641,12.429-6.101,18.802l15.936,15.532l-3.764,21.939c-1.544,9.033,7.958,15.844,15.994,11.614
		l19.697-10.355c21.306,11.201,21.307,11.621,24.827,11.621c2.343,0,4.583-0.728,6.479-2.105c3.418-2.483,5.097-6.612,4.384-10.781
		l-3.763-21.935l15.934-15.53C202.92,163.958,199.316,152.847,190.271,151.524z M166.118,177.247
		c-1.904,1.858-2.775,4.533-2.324,7.155l2.719,15.851c-14.543-7.646-16.965-10.002-21.758-7.483l-14.231,7.483l2.717-15.851
		c0.451-2.622-0.419-5.297-2.324-7.155l-11.515-11.224l15.914-2.313c2.634-0.383,4.909-2.036,6.086-4.422l7.116-14.419l7.117,14.419
		c1.179,2.387,3.454,4.039,6.086,4.422l15.913,2.313L166.118,177.247z"/>
</g>
<g>
</g>
<g>
</g>
<g>
</g>
<g>
</g>
<g>
</g>
<g>
</g>
<g>
</g>
<g>
</g>
<g>
</g>
<g>
</g>
<g>
</g>
<g>
</g>
<g>
</g>
<g>
</g>
<g>
</g>
</svg>
