<svg id="Capa_1" enable-background="new 0 0 512 512" height="512" viewBox="0 0 512 512" width="512" xmlns="http://www.w3.org/2000/svg"><path d="m504.5 384.132h-497v-116.574c0-29.263 23.723-52.986 52.986-52.986h391.028c29.263 0 52.986 23.723 52.986 52.986z" fill="#9dc6fb"/><path d="m451.514 214.571h-34.14c29.263 0 52.986 23.723 52.986 52.986v116.575h34.14v-116.574c0-29.264-23.723-52.987-52.986-52.987z" fill="#80b4fb"/><path d="m7.5 384.132h497v34.572h-497z" fill="#5490f9"/><path d="m470.36 384.132h34.14v34.572h-34.14z" fill="#4a81f6"/><path d="m31.885 418.705h41.041v51.532h-41.041z" fill="#595959"/><path d="m439.073 418.705h41.041v51.532h-41.041z" fill="#595959"/><path d="m31.886 418.705h41.041v17.286h-41.041z" fill="#454545"/><path d="m439.073 418.705h41.041v17.286h-41.041z" fill="#454545"/><path d="m236.807 214.571h38.385c71.26-36.588 99.214-77.291 99.214-112.116 0-32.654-24.155-60.692-59.203-60.692-39.311 0-59.203 27.311-59.203 27.311s-19.892-27.312-59.203-27.312c-35.048 0-59.203 28.039-59.203 60.692-.001 34.826 27.954 75.53 99.213 112.117z" fill="#da4a54"/><path d="m315.203 41.763c-6.56 0-12.566.772-18.042 2.039 26.277 7.002 43.363 31.193 43.363 58.653 0 34.825-27.954 75.528-99.214 112.116h33.883c71.26-36.588 99.214-77.291 99.214-112.116-.001-32.653-24.156-60.692-59.204-60.692z" fill="#d82e3d"/><path d="m137.593 102.455c0-3.995.367-7.919 1.065-11.733h-62.541c-19.041 0-34.477 15.436-34.477 34.477v92.834c5.857-2.23 12.206-3.463 18.846-3.463h176.321c-71.259-36.586-99.214-77.29-99.214-112.115z" fill="#5490f9"/><path d="m137.593 102.455c0-3.995.367-7.919 1.065-11.733h-28.527c-.134 1.894-.223 3.798-.223 5.721 0 36.65 25.103 78.576 87.045 118.128h39.854c-71.259-36.587-99.214-77.291-99.214-112.116z" fill="#4a81f6"/><path d="m435.882 90.723h-62.542c.699 3.814 1.065 7.738 1.065 11.733 0 34.825-27.954 75.528-99.214 112.116h176.321c6.64 0 12.989 1.232 18.846 3.463v-92.835c.002-19.041-15.434-34.477-34.476-34.477z" fill="#5490f9"/><path d="m275.192 214.571h39.854c61.942-39.552 87.045-81.478 87.045-118.128 0-1.923-.089-3.827-.223-5.721h-28.527c.699 3.814 1.065 7.738 1.065 11.733 0 34.825-27.954 75.529-99.214 112.116z" fill="#4a81f6"/><path d="m512 267.558c0-23.914-13.951-44.627-34.14-54.438v-30.993c0-4.142-3.357-7.5-7.5-7.5s-7.5 3.358-7.5 7.5v26.027c-3.678-.701-7.468-1.083-11.347-1.083h-147.752c50.623-31.348 78.146-67.899 78.146-104.616 0-1.419-.055-2.829-.135-4.232h54.111c14.875 0 26.978 12.102 26.978 26.977v26.94c0 4.142 3.357 7.5 7.5 7.5s7.5-3.358 7.5-7.5v-26.94c0-23.146-18.831-41.977-41.978-41.977h-56.561c-2.944-10.678-8.343-20.444-15.906-28.494-12.399-13.198-29.521-20.466-48.212-20.466-30.249 0-49.973 14.675-59.203 23.646-9.23-8.97-28.954-23.646-59.204-23.646-18.691 0-35.812 7.268-48.21 20.466-7.563 8.05-12.962 17.816-15.907 28.494h-56.563c-23.146 0-41.977 18.831-41.977 41.977v87.92c-20.189 9.811-34.14 30.524-34.14 54.438v47.771c0 4.143 3.358 7.5 7.5 7.5s7.5-3.357 7.5-7.5v-47.771c0-25.081 20.405-45.486 45.486-45.486h391.027c25.081 0 45.486 20.405 45.486 45.486v109.074h-481.999v-31.317c0-4.143-3.358-7.5-7.5-7.5s-7.5 3.357-7.5 7.5v38.817s0 0 0 0v34.571c0 4.143 3.358 7.5 7.5 7.5h16.886v44.032c0 4.143 3.358 7.5 7.5 7.5h41.041c4.142 0 7.5-3.357 7.5-7.5v-44.032h351.147v44.032c0 4.143 3.357 7.5 7.5 7.5h41.04c4.143 0 7.5-3.357 7.5-7.5v-44.032h16.886c4.143 0 7.5-3.357 7.5-7.5v-34.571s0 0 0 0zm-462.86-59.404v-82.954c0-14.875 12.102-26.977 26.977-26.977h54.111c-.08 1.404-.135 2.813-.135 4.232 0 36.718 27.523 73.269 78.146 104.616h-147.753c-3.879.001-7.668.382-11.346 1.083zm189.489-1.082c-81.341-42.218-93.536-83.616-93.536-104.616 0-29.455 21.701-53.192 51.703-53.192 34.775 0 52.426 23.262 53.141 24.227 1.412 1.938 3.665 3.084 6.063 3.084s4.651-1.146 6.062-3.084c.177-.242 18.052-24.227 53.141-24.227 14.507 0 27.746 5.588 37.279 15.736 9.35 9.953 14.425 23.297 14.425 37.456 0 21-12.194 62.398-93.535 104.616zm-173.203 255.665h-26.04v-36.532h26.041v36.532zm407.188 0h-26.04v-36.532h26.04zm24.386-51.533c-67.639 0-414.357 0-482 0v-19.571h482z"/></svg>