<?xml version="1.0" encoding="iso-8859-1"?>
<!-- Generator: Adobe Illustrator 19.0.0, SVG Export Plug-In . SVG Version: 6.00 Build 0)  -->
<svg version="1.1" id="Layer_1" xmlns="http://www.w3.org/2000/svg" xmlns:xlink="http://www.w3.org/1999/xlink" x="0px" y="0px"
	 viewBox="0 0 512 512" style="enable-background:new 0 0 512 512;" xml:space="preserve">
<path style="fill:#314E55;" d="M256,0C114.908,0,9.481,149.102,9.481,282.417C9.481,417.593,110.852,512,256,512
	s246.519-94.407,246.519-229.583C502.519,149.102,397.093,0,256,0z"/>
<path style="fill:#E9E7D1;" d="M256,493.037c-133.981,0-227.556-86.611-227.556-210.62c0-124.361,97.315-263.454,227.556-263.454
	s227.556,139.093,227.556,263.454C483.556,406.426,389.981,493.037,256,493.037z"/>
<path style="fill:#314E55;" d="M170.667,256c0,47.056,38.282,85.333,85.333,85.333s85.333-38.278,85.333-85.333
	S303.051,170.667,256,170.667S170.667,208.944,170.667,256z"/>
<path style="fill:#E65F58;" d="M256,189.63c36.597,0,66.37,29.778,66.37,66.37s-29.773,66.37-66.37,66.37s-66.37-29.778-66.37-66.37
	S219.403,189.63,256,189.63z"/>
<g>
	<path style="fill:#314E55;" d="M256,227.556c15.685,0,28.444,12.759,28.444,28.444c0,5.241,4.245,9.481,9.481,9.481
		s9.481-4.241,9.481-9.481c0-26.139-21.269-47.407-47.407-47.407c-5.236,0-9.481,4.241-9.481,9.481
		C246.519,223.315,250.764,227.556,256,227.556z"/>
	<path style="fill:#314E55;" d="M317.292,162.333c2.426,0,4.852-0.926,6.704-2.778l20.114-20.112l26.821,26.816
		c1.852,1.852,4.278,2.778,6.704,2.778s4.852-0.926,6.704-2.778c3.704-3.704,3.704-9.704,0-13.407l-26.82-26.815l20.112-20.11
		c3.704-3.704,3.704-9.704,0-13.407c-3.704-3.704-9.704-3.704-13.407,0l-20.113,20.111l-13.41-13.407
		c-3.704-3.704-9.704-3.704-13.407,0s-3.704,9.704,0,13.407l13.409,13.407l-20.113,20.111c-3.704,3.704-3.704,9.704,0,13.407
		C312.44,161.408,314.866,162.333,317.292,162.333z"/>
	<path style="fill:#314E55;" d="M181.301,166.259c1.852,1.852,4.278,2.778,6.704,2.778c2.426,0,4.852-0.926,6.704-2.778
		c3.704-3.704,3.704-9.704,0-13.407l-26.821-26.816L188,105.926c3.704-3.704,3.704-9.704,0-13.407
		c-3.704-3.704-9.704-3.704-13.407,0L154.48,112.63l-13.41-13.407c-3.704-3.704-9.704-3.704-13.407,0
		c-3.703,3.704-3.704,9.704,0,13.407l13.409,13.407l-20.113,20.111c-3.704,3.704-3.704,9.704,0,13.407
		c1.852,1.852,4.278,2.778,6.704,2.778c2.426,0,4.852-0.926,6.704-2.778l20.114-20.112L181.301,166.259z"/>
	<path style="fill:#314E55;" d="M403.63,281.87c-4.792-2.167-10.394-0.055-12.551,4.722c-20.241,44.65-61.663,75.591-109.128,83.185
		h-45.126c-27.297-4.265-52.947-16.154-73.82-34.741c-3.912-3.491-9.907-3.13-13.389,0.778c-3.481,3.907-3.134,9.907,0.778,13.389
		c14.487,12.896,31.022,22.922,48.746,29.915c-0.001,0.05-0.028,0.091-0.028,0.14v47.407c0,31.37,25.518,56.889,56.889,56.889
		s56.889-25.518,56.889-56.889v-45.259c41.651-14.525,76.656-45.496,95.458-86.981C410.509,289.657,408.398,284.037,403.63,281.87z"
		/>
</g>
<path style="fill:#E65F58;" d="M293.926,388.741v37.926c0,20.917-17.014,37.926-37.926,37.926s-37.926-17.009-37.926-37.926v-37.926
	h17.591c7.759,1.126,15.6,1.861,23.534,1.861c8.25,0,16.402-0.648,24.41-1.861H293.926z"/>
<path style="fill:#314E55;" d="M246.519,407.704v9.481c0,5.241,4.245,9.481,9.481,9.481s9.481-4.241,9.481-9.481v-9.481
	c0-5.241-4.245-9.481-9.481-9.481S246.519,402.463,246.519,407.704z"/>
<g>
</g>
<g>
</g>
<g>
</g>
<g>
</g>
<g>
</g>
<g>
</g>
<g>
</g>
<g>
</g>
<g>
</g>
<g>
</g>
<g>
</g>
<g>
</g>
<g>
</g>
<g>
</g>
<g>
</g>
</svg>
