<svg height="480pt" viewBox="-15 0 480 480.00316" width="480pt" xmlns="http://www.w3.org/2000/svg"><path d="m347.460938 416.421875-187.527344 54.335937c-13.933594 4.03125-28.835938-1.816406-36.3125-14.25l-100.632813-167.316406c-14.0625-23.386718-18.429687-51.34375-12.167969-77.90625l1.816407-7.6875c8.863281-37.550781 37.6875-67.171875 74.984375-77.046875 48.359375-12.816406 99.019531 10.421875 120.855468 55.429688l24.1875 49.839843 51.613282-20.117187c46.613281-18.167969 99.5625-.777344 126.320312 41.496094 20.640625 32.597656 21.648438 73.910156 2.625 107.476562l-3.898437 6.875c-13.449219 23.738281-35.652344 41.28125-61.863281 48.871094zm0 0" fill="#c7463b"/><path d="m363.460938 368.421875-187.527344 54.335937c-13.933594 4.03125-28.835938-1.816406-36.3125-14.25l-100.632813-167.316406c-14.0625-23.386718-18.429687-51.34375-12.167969-77.90625l1.816407-7.6875c8.863281-37.550781 37.6875-67.171875 74.984375-77.046875 48.359375-12.816406 99.019531 10.421875 120.855468 55.429688l24.1875 49.839843 51.613282-20.117187c46.613281-18.167969 99.5625-.777344 126.320312 41.496094 20.640625 32.597656 21.648438 73.910156 2.625 107.476562l-3.898437 6.875c-13.449219 23.738281-35.652344 41.28125-61.863281 48.871094zm0 0" fill="#9c775c"/><g fill="#744630"><path d="m368.039062 291.046875c-17.675781 0-32-14.328125-32-32 0-17.675781 14.324219-32 32-32 17.671876 0 32 14.324219 32 32 0 17.671875-14.328124 32-32 32zm0 0"/><path d="m296.039062 339.046875c-17.675781 0-32-14.328125-32-32 0-17.675781 14.324219-32 32-32 17.671876 0 32 14.324219 32 32 0 17.671875-14.328124 32-32 32zm0 0"/><path d="m208.039062 379.046875c-17.675781 0-32-14.328125-32-32 0-17.675781 14.324219-32 32-32 17.671876 0 32 14.324219 32 32 0 17.671875-14.328124 32-32 32zm0 0"/><path d="m136.039062 323.046875c-17.675781 0-32-14.328125-32-32 0-17.675781 14.324219-32 32-32 17.671876 0 32 14.324219 32 32 0 17.671875-14.328124 32-32 32zm0 0"/></g><path d="m398.496094 203.277344-154.753906 119.039062c-11.503907 8.851563-27.519532 8.851563-39.023438 0l-154.753906-119.039062c-21.621094-16.628906-35.886719-41.050782-39.75-68.054688l-1.121094-7.824218c-5.46875-38.203126 10.550781-76.3125 41.671875-99.136719 40.355469-29.609375 96.03125-26.46875 132.800781 7.488281l40.703125 37.601562 40.703125-37.601562c36.773438-33.957031 92.449219-37.097656 132.800782-7.488281 31.113281 22.816406 47.128906 60.910156 41.671874 99.105469l-1.121093 7.824218c-3.875 27.023438-18.171875 51.460938-39.828125 68.085938zm0 0" fill="#f55648"/><path d="m171.789062 296.988281 247.441407-247.429687c-9.789063-13.027344-22.507813-23.5625-37.128907-30.753906l-248.679687 248.671874zm0 0" fill="#ea9d2d"/><path d="m291.460938 177.324219-19.445313 50.5625c-1.9375 5.058593-6.304687 8.792969-11.605469 9.925781-5.296875 1.128906-10.808594-.5-14.644531-4.328125l-44.375-44.375c-3.828125-3.832031-5.457031-9.34375-4.328125-14.644531 1.132812-5.296875 4.867188-9.664063 9.925781-11.601563l50.5625-19.449219zm0 0" fill="#fbb540"/><path d="m325.398438 143.382812 50.558593-19.441406c5.0625-1.9375 8.796875-6.304687 9.925781-11.601562 1.132813-5.300782-.496093-10.8125-4.324218-14.644532l-44.410156-44.386718c-3.832032-3.828125-9.34375-5.457032-14.644532-4.324219-5.296875 1.128906-9.664062 4.863281-11.601562 9.925781l-19.441406 50.558594zm0 0" fill="#fbb540"/><path d="m323.460938 143.382812c0 17.671876-14.324219 32-32 32-17.671876 0-32-14.328124-32-32 0-17.675781 14.328124-32 32-32 17.675781 0 32 14.324219 32 32zm0 0" fill="#c7463b"/><path d="m424.199219 188.613281c11.6875-15.257812 19.253906-33.265625 21.96875-52.296875l1.117187-7.816406c5.476563-38.101562-8.9375-76.359375-38.199218-101.375l-.328126-.296875c-2.039062-1.734375-4.152343-3.414063-6.335937-5.015625-2.648437-1.933594-5.382813-3.765625-8.199219-5.472656-1.855468-1.125-3.777344-2.109375-5.679687-3.117188-.976563-.511718-1.914063-1.105468-2.90625-1.601562-41.777344-20.523438-91.875-13.277344-126.125 18.25l-35.28125 32.550781-35.28125-32.566406c-34.996094-32.308594-86.535157-39.09375-128.699219-16.941407-42.164062 22.148438-65.820312 68.441407-59.074219 115.585938l1.117188 7.816406c1.929687 13.449219 6.285156 26.433594 12.855469 38.320313-4.582032 8.5625-8.042969 17.679687-10.285157 27.128906l-1.808593 7.6875c-6.816407 28.589844-2.117188 58.710937 13.085937 83.863281l100.609375 167.3125c9.351562 15.539063 27.988281 22.84375 45.40625 17.792969l187.53125-54.328125c28.246094-8.121094 52.167969-27.023438 66.605469-52.625l3.898437-6.871094c7.714844-13.582031 12.507813-28.625 14.0625-44.167968 0-.128907-.046875-.230469-.039062-.351563l1.976562-3.480469c23.566406-40.890625 18.757813-92.203125-12-128zm-6.113281-126.609375c11.828124 19.1875 16.554687 41.914063 13.359374 64.226563l-1.121093 7.824219c-3.503907 24.964843-16.691407 47.554687-36.710938 62.878906l-154.75 119.089844c-8.628906 6.632812-20.640625 6.632812-29.265625 0l-25.703125-19.769532 56.695313-56.703125c5.796875 5.53125 13.972656 7.796875 21.785156 6.042969 7.816406-1.757812 14.238281-7.300781 17.109375-14.78125l18.464844-48c16.960937-2.652344 30.253906-15.976562 32.871093-32.941406l48-18.464844c7.484376-2.859375 13.039063-9.277344 14.796876-17.09375 1.753906-7.816406-.519532-15.992188-6.058594-21.777344zm-50.046876 181.042969c8.835938 0 16 7.164063 16 16s-7.164062 16-16 16c-8.835937 0-16-7.164063-16-16-.003906-1.832031.308594-3.648437.925782-5.371094 2.273437-6.371093 8.304687-10.628906 15.074218-10.628906zm-87.914062 61.375 17.226562-13.25c8.644532.714844 15.148438 8.1875 14.660157 16.847656-.488281 8.664063-7.789063 15.355469-16.460938 15.09375-8.671875-.265625-15.554687-7.390625-15.511719-16.066406 0-.691406.042969-1.378906.128907-2.066406.023437-.160157-.050781-.367188-.042969-.558594zm-56.085938 42.625c-.003906 8.011719-5.9375 14.785156-13.878906 15.851563-7.941406 1.0625-15.445312-3.914063-17.558594-11.644532-2.109374-7.730468 1.824219-15.832031 9.203126-18.953125.804687-.335937 1.632812-.601562 2.480468-.800781 4.839844 2.785156 10.210938 4.515625 15.761719 5.082031 2.554687 2.890625 3.972656 6.605469 3.992187 10.464844zm-78.511718-80.359375 61.078125-61.066406 22.617187 22.617187-58.136718 58.128907-13.367188-10.289063zm6.398437 25.140625c-.375 8.105469-6.757812 14.644531-14.847656 15.21875s-15.332031-4.996094-16.851563-12.960937c-1.519531-7.96875 3.164063-15.8125 10.898438-18.257813zm156.496094-165.40625c9.371094 9.371094 9.371094 24.566406 0 33.941406-9.375 9.371094-24.570313 9.371094-33.941406 0-9.371094-9.375-9.375-24.570312-.003907-33.941406 9.375-9.375 24.574219-9.375 33.945313 0zm-6.65625-21.488281 16.59375-43.199219c.96875-2.53125 3.152344-4.398437 5.804687-4.960937 2.652344-.566407 5.40625.25 7.320313 2.167968l44.378906 44.382813c1.914063 1.917969 2.726563 4.667969 2.164063 7.316406-.558594 2.648437-2.421875 4.832031-4.949219 5.804687l-43.199219 16.601563c-3.46875-13.859375-14.289062-24.675781-28.144531-28.144531zm-20.625 76.921875-16.597656 43.199219c-.972657 2.53125-3.15625 4.398437-5.804688 4.960937-2.652343.5625-5.410156-.253906-7.324219-2.171875l-44.375-44.382812c-1.914062-1.914063-2.730468-4.667969-2.167968-7.3125.5625-2.648438 2.425781-4.832032 4.949218-5.808594l43.203126-16.605469c3.460937 13.863281 14.285156 24.6875 28.152343 28.152344zm103.34375-152.625c2.921875 1.675781 5.75 3.507812 8.472656 5.488281 2.597657 1.914062 5.089844 3.964844 7.472657 6.144531.367187.328125.738281.65625 1.097656.992188 2.433594 2.257812 4.753906 4.640625 6.949218 7.132812l-32.167968 32.175781-22.621094-22.628906 29.832031-29.832031c.320313.175781.648438.335937.964844.527344zm-328.988281 5.488281c37.28125-27.230469 88.605468-24.339844 122.597656 6.902344l40.726562 37.601562c3.066407 2.824219 7.785157 2.824219 10.851563 0l40.703125-37.601562c26.335938-24.195313 63.871094-31.886719 97.597656-20l-25.65625 25.648437c-5.789062-5.535156-13.96875-7.804687-21.785156-6.042969-7.816406 1.757813-14.230469 7.3125-17.09375 14.796876l-18.472656 48c-16.933594 2.640624-30.222656 15.925781-32.863282 32.863281l-48 18.472656c-7.484374 2.859375-13.035156 9.277344-14.792968 17.097656-1.753906 7.816407.519531 15.992188 6.058594 21.78125l-62.632813 62.582031-77.914063-59.886718c-20.019531-15.324219-33.210937-37.910156-36.71875-62.878906l-1.121093-7.824219c-5.058594-35.277344 9.75-70.46875 38.515625-91.511719zm350.773437 322.015625-3.894531 6.863281c-12.382812 21.972656-32.910156 38.1875-57.152344 45.144532l-187.511718 54.328124c-10.457032 3.027344-21.640626-1.359374-27.25-10.6875l-100.613282-167.3125c-13.027344-21.585937-17.046875-47.421874-11.203125-71.945312l.25-1.046875c2.621094 11.71875 7.101563 22.9375 13.273438 33.238281l100.582031 167.3125c9.351562 15.539063 27.988281 22.84375 45.40625 17.792969l187.53125-54.328125c15.707031-4.5625 30.226562-12.503906 42.542969-23.273438-.664063 1.296876-1.230469 2.632813-1.960938 3.914063zm16-48-3.894531 6.863281c-12.382812 21.972656-32.910156 38.1875-57.152344 45.144532l-187.511718 54.328124c-10.457032 3.027344-21.640626-1.359374-27.25-10.6875l-100.613282-167.3125c-7.054687-11.808593-11.519531-24.984374-13.089844-38.648437 3.828126 4.03125 7.949219 7.773437 12.328126 11.199219l72.222656 55.550781c-11.085938 7.984375-15.871094 22.132813-11.90625 35.203125 3.964844 13.074219 15.800781 22.179688 29.453125 22.660156 13.652343.480469 26.101562-7.769531 30.976562-20.535156l1.085938.800781 22.808593 17.542969c-13.902343 9.59375-17.984374 28.320312-9.339843 42.828125 8.648437 14.507813 27.0625 19.828125 42.113281 12.167969 15.050781-7.664063 21.582031-25.683594 14.9375-41.210938 4.03125-1.394531 7.808594-3.421875 11.199219-6.007812l16.800781-12.902344c3.878906 13.828125 16.515625 23.363281 30.875 23.296875 14.363281-.066406 26.910156-9.71875 30.660156-23.582031 3.746094-13.867188-2.226562-28.523438-14.597656-35.820313l23.925781-18.398437c1.058594 15.988281 13.804688 28.714844 29.796875 29.746094 15.988282 1.03125 30.265625-9.953126 33.371094-25.671876 3.101562-15.71875-5.929688-31.304687-21.109375-36.425781l25.007813-19.242187c3.558593-2.769532 6.945312-5.75 10.144531-8.925782 2.277343 2.808594 4.390625 5.746094 6.335937 8.796876 19.085938 30.089843 20.019532 68.253906 2.421875 99.242187zm0 0"/></svg>